<svg xmlns="http://www.w3.org/2000/svg" xmlns:xlink="http://www.w3.org/1999/xlink" viewBox="0 0 1920 1080"><defs><style>.a{clip-path:url(#b);}.b{opacity:0.5;}.c{fill:#fff;opacity:0.05;}.d{fill:#333;}</style><clipPath id="b"><rect width="1920" height="1080"/></clipPath></defs><g id="a" class="a"><rect class="d" width="1920" height="1080"/><g transform="translate(-14 -21)"><g class="b" transform="translate(73 -498)"><circle class="c" cx="70" cy="70" r="70" transform="translate(1693 614)"/><circle class="c" cx="17.5" cy="17.5" r="17.5" transform="translate(278 592)"/><circle class="c" cx="16.5" cy="16.5" r="16.5" transform="translate(1366 1349)"/><circle class="c" cx="23.5" cy="23.5" r="23.5" transform="translate(1889 343)"/><circle class="c" cx="148" cy="148" r="148" transform="translate(-208 331)"/><circle class="c" cx="77" cy="77" r="77" transform="translate(283 1270)"/><circle class="c" cx="48" cy="48" r="48" transform="translate(1182 896)"/><circle class="c" cx="29" cy="29" r="29" transform="translate(1634 1030)"/><circle class="c" cx="29" cy="29" r="29" transform="translate(1804 1453)"/><circle class="c" cx="29" cy="29" r="29" transform="translate(788 1424)"/><circle class="c" cx="39" cy="39" r="39" transform="translate(49 1579)"/><circle class="c" cx="29" cy="29" r="29" transform="translate(107 934)"/><circle class="c" cx="29" cy="29" r="29" transform="translate(1278 519)"/><circle class="c" cx="16" cy="16" r="16" transform="translate(727 819)"/><circle class="c" cx="103" cy="103" r="103" transform="translate(1362 1556)"/></g></g></g></svg>